<?xml version="1.0" standalone="no"?>
<!DOCTYPE svg PUBLIC "-//W3C//DTD SVG 20010904//EN"
 "http://www.w3.org/TR/2001/REC-SVG-20010904/DTD/svg10.dtd">
<svg version="1.0" xmlns="http://www.w3.org/2000/svg"
 width="500.000000pt" height="500.000000pt" viewBox="0 0 500.000000 500.000000"
 preserveAspectRatio="xMidYMid meet">

<g transform="translate(0.000000,500.000000) scale(0.100000,-0.100000)"
fill="#000000" stroke="none">
<path d="M2570 3212 c-58 -59 -125 -128 -150 -155 l-44 -47 97 0 96 0 158 155
158 154 -105 1 -105 0 -105 -108z"/>
<path d="M1140 3281 c0 -6 4 -13 10 -16 6 -3 7 1 4 9 -7 18 -14 21 -14 7z"/>
<path d="M1130 3191 c0 -10 19 -25 25 -20 1 2 -3 10 -11 17 -8 7 -14 8 -14 3z"/>
<path d="M1179 3142 c5 -34 6 -35 9 -8 2 16 0 32 -5 37 -5 5 -7 -7 -4 -29z"/>
<path d="M2975 3009 c-99 -95 -265 -256 -370 -359 -104 -102 -207 -201 -227
-218 l-38 -31 91 -81 90 -81 181 173 c100 95 244 234 320 308 l139 135 -3 163
-3 162 -180 -171z"/>
<path d="M1220 3010 c0 -16 4 -30 8 -30 5 0 7 14 4 30 -2 17 -6 30 -8 30 -2 0
-4 -13 -4 -30z"/>
<path d="M2192 2827 l-142 -142 55 -55 56 -55 94 96 95 96 0 102 c0 55 -3 101
-8 101 -4 0 -71 -64 -150 -143z"/>
<path d="M2390 2840 l0 -130 50 0 50 0 -20 33 c-14 23 -20 50 -20 95 l0 62 61
0 c52 0 60 -2 57 -17 -2 -13 -14 -19 -41 -21 l-37 -3 0 -50 c0 -73 21 -99 78
-99 l45 0 -20 23 c-11 12 -26 32 -32 44 -10 20 -9 23 14 29 31 8 65 49 65 80
0 64 -37 84 -160 84 l-90 0 0 -130z"/>
<path d="M1100 2030 l0 -930 1400 0 1400 0 -2 502 -3 502 -32 3 c-18 2 -33 -2
-33 -8 0 -5 -5 -7 -10 -4 -6 4 -17 2 -24 -4 -8 -7 -18 -11 -22 -10 -31 5 -67
-4 -84 -21 -11 -11 -29 -20 -40 -20 -11 0 -20 -6 -20 -14 0 -16 -29 -25 -65
-21 -14 1 -25 -2 -25 -7 0 -6 -16 -8 -35 -6 -26 3 -35 0 -36 -12 0 -9 -2 -10
-5 -3 -4 9 -11 9 -29 1 -14 -6 -23 -14 -21 -17 2 -3 -7 -7 -20 -7 -13 -1 -24
3 -24 10 0 7 -3 7 -8 1 -10 -14 -59 -35 -81 -35 -11 0 -21 -7 -25 -15 -3 -8
-12 -15 -20 -15 -9 0 -30 -13 -48 -28 -33 -28 -78 -36 -105 -19 -7 5 -20 -4
-34 -23 -13 -16 -28 -30 -34 -30 -17 0 -55 -44 -55 -63 0 -11 -8 -17 -25 -17
-22 0 -25 4 -25 38 0 28 -10 52 -35 88 -19 27 -35 52 -35 56 0 5 16 8 35 8 19
0 35 -4 35 -10 0 -5 7 -10 16 -10 9 0 13 -5 9 -12 -3 -7 2 -3 11 10 11 15 28
22 53 23 21 1 28 3 16 6 -11 3 -30 17 -43 31 -13 15 -26 22 -30 17 -4 -6 -31
-10 -61 -10 -37 -1 -57 -6 -65 -17 -9 -12 -16 -14 -29 -6 -21 11 -66 8 -85 -6
-9 -7 -16 -5 -23 5 -5 8 -9 10 -9 4 0 -5 -4 -4 -9 4 -6 9 -15 11 -27 6 -11 -5
-21 -9 -24 -10 -3 -1 -16 -7 -30 -13 l-25 -11 25 0 c17 -1 33 -13 50 -39 l25
-37 3 38 c3 32 7 37 28 37 24 0 24 -1 24 -95 0 -111 -10 -119 -61 -52 -18 23
-35 45 -39 50 -3 4 -7 -12 -9 -35 -3 -53 -5 -56 -36 -50 -24 4 -25 6 -25 93 0
81 -2 89 -19 89 -25 0 -31 -19 -31 -105 0 -41 -4 -76 -9 -79 -18 -11 -40 6
-66 50 -26 44 -37 55 -34 32 1 -7 1 -30 0 -50 -1 -31 -5 -38 -21 -38 -25 0
-27 5 -34 109 l-7 83 40 -4 c23 -2 42 1 45 7 2 6 -8 11 -23 11 -19 -1 -27 5
-29 21 -2 17 -10 22 -30 22 -99 -1 -137 3 -149 13 -11 9 -17 8 -24 -3 -5 -8
-9 -9 -9 -3 0 7 -25 15 -57 18 -65 8 -113 24 -113 38 0 5 -5 6 -10 3 -5 -3
-10 1 -10 9 0 9 -9 16 -20 16 -11 0 -20 5 -20 10 0 6 -11 10 -25 10 -14 0 -25
4 -25 9 0 5 -21 17 -47 27 -27 10 -61 33 -78 51 -16 19 -46 42 -65 52 -19 10
-35 23 -35 29 0 5 -15 26 -32 46 -18 19 -33 45 -33 56 0 11 -7 20 -15 20 -8 0
-21 12 -29 28 -8 15 -23 35 -33 44 -65 61 -87 99 -79 133 3 13 1 27 -4 30 -6
4 -10 12 -9 18 4 23 -13 67 -26 67 -7 0 -24 9 -39 21 -21 17 -26 29 -26 65 0
24 -4 44 -10 44 -5 0 -10 -5 -10 -12 0 -6 -12 -1 -27 13 -21 19 -25 20 -20 6
4 -11 3 -16 -3 -12 -6 3 -10 26 -10 50 0 35 -4 45 -20 50 -12 4 -20 16 -21 28
0 20 -1 21 -8 3 -7 -18 -8 -18 -14 -3 -4 11 -18 17 -37 17 l-30 0 0 -930z
m1177 -146 c17 -19 21 -33 18 -69 -3 -41 -35 -101 -47 -89 -3 3 -8 -4 -11 -16
-4 -16 0 -20 18 -20 27 0 40 -43 19 -61 -18 -15 -48 -3 -40 16 9 23 -27 18
-42 -6 -21 -32 -56 -22 -60 19 -3 29 -1 32 25 33 24 0 25 1 8 9 -16 6 -12 9
20 12 l40 5 -42 1 c-35 2 -47 8 -70 37 l-28 35 -5 -32 c-4 -27 -10 -34 -32
-36 l-28 -3 0 95 0 96 51 0 c28 0 59 -5 70 -10 15 -8 21 -7 25 5 3 8 10 12 15
9 5 -3 9 -1 9 5 0 17 63 -9 87 -35z m543 -28 c0 -38 6 -61 20 -78 10 -14 16
-28 13 -32 -9 -9 -106 -7 -121 3 -11 6 -8 14 12 36 21 22 26 38 26 76 0 46 2
49 25 49 24 0 25 -3 25 -54z m-732 -192 c4 -25 -22 -49 -43 -40 -9 3 -15 18
-15 36 0 28 3 31 28 28 18 -2 28 -9 30 -24z m303 19 c0 -5 2 -18 5 -30 3 -17
-2 -24 -21 -29 -33 -8 -45 2 -45 37 0 26 3 29 30 29 17 0 30 -3 31 -7z m106
-28 c0 -30 -4 -35 -24 -35 -20 0 -23 5 -23 35 0 30 3 35 23 35 20 0 24 -5 24
-35z m103 0 c0 -32 -19 -52 -21 -22 0 10 -2 10 -6 0 -10 -25 -23 -12 -23 22 0
31 3 35 25 35 22 0 25 -4 25 -35z m92 10 c-4 -21 -19 -42 -25 -34 -2 2 -7 17
-11 32 -6 26 -4 28 16 25 17 -2 22 -9 20 -23z m164 -2 c-2 -16 -4 -31 -5 -35
0 -5 -10 -8 -20 -8 -15 0 -19 7 -19 35 0 30 3 35 23 35 20 0 23 -4 21 -27z
m112 -2 c5 -30 -10 -45 -37 -36 -21 6 -29 43 -14 59 15 15 48 1 51 -23z"/>
<path d="M2070 1850 c0 -13 7 -20 18 -20 24 0 32 8 25 26 -8 22 -43 17 -43 -6z"/>
<path d="M2177 1863 c-4 -3 -7 -14 -7 -24 0 -10 -8 -22 -17 -28 -17 -9 -16
-11 1 -30 50 -55 131 4 96 70 -10 19 -59 27 -73 12z"/>
<path d="M2475 2080 c-3 -5 -1 -10 4 -10 6 0 11 5 11 10 0 6 -2 10 -4 10 -3 0
-8 -4 -11 -10z"/>
<path d="M2411 1891 c-12 -8 -12 -14 4 -37 19 -29 34 -19 19 14 -4 9 -6 20 -6
25 2 9 0 9 -17 -2z"/>
<path d="M2993 1845 c-3 -9 -3 -18 -1 -21 3 -3 8 4 11 16 6 23 -1 27 -10 5z"/>
</g>
</svg>
