<?xml version="1.0" standalone="no"?>
<!DOCTYPE svg PUBLIC "-//W3C//DTD SVG 20010904//EN"
 "http://www.w3.org/TR/2001/REC-SVG-20010904/DTD/svg10.dtd">
<svg version="1.0" xmlns="http://www.w3.org/2000/svg"
 width="500.000000pt" height="500.000000pt" viewBox="0 0 500.000000 500.000000"
 preserveAspectRatio="xMidYMid meet">

<g transform="translate(0.000000,500.000000) scale(0.100000,-0.100000)"
fill="#000000" stroke="none">
<path d="M0 3540 l0 -1460 1355 0 1355 0 0 1160 0 1160 673 0 c369 0 885 3
1145 7 l472 6 0 108 0 108 -1144 3 c-629 2 -1148 7 -1153 11 -4 5 -9 87 -11
183 l-4 174 -109 0 -109 0 0 -185 0 -185 -1200 0 -1200 0 0 63 c0 35 -3 119
-7 185 l-6 122 -29 0 -28 0 0 -1460z m1291 197 c65 -35 89 -76 89 -154 0 -108
-41 -158 -141 -169 -32 -4 -59 -10 -59 -13 0 -4 40 -71 89 -149 l90 -142 -55
0 c-37 0 -54 4 -54 13 0 6 -29 71 -66 143 l-66 131 32 44 c31 43 32 45 28 142
-3 93 -2 98 17 95 34 -5 57 -64 52 -136 -3 -34 -10 -69 -17 -77 -21 -25 -4
-29 32 -8 57 33 76 138 38 201 -26 42 -73 62 -150 62 l-60 0 0 -310 0 -310
-47 1 c-27 0 -42 3 -35 6 9 4 12 79 12 329 l0 324 113 0 c100 0 119 -3 158
-23z m-233 -812 c-3 -14 -1 -28 3 -31 5 -3 9 -13 9 -22 -1 -16 -2 -16 -14 1
-18 23 -34 21 -39 -5 -2 -13 -5 1 -6 30 -1 50 0 52 25 52 23 0 26 -3 22 -25z
m112 10 c6 -8 10 -22 8 -32 -5 -25 -51 -25 -56 0 -8 42 23 63 48 32z m37 -7
c-3 -8 -6 -5 -6 6 -1 11 2 17 5 13 3 -3 4 -12 1 -19z m73 -5 l13 -28 6 30 c4
18 9 25 14 19 8 -14 -2 -74 -14 -74 -11 0 -49 50 -49 66 0 23 16 16 30 -13z
m126 -23 l-14 -34 -16 32 c-21 41 -20 53 3 23 l18 -24 8 29 c4 16 9 24 11 18
3 -6 -2 -26 -10 -44z m-159 -22 c-3 -7 -5 -2 -5 12 0 14 2 19 5 13 2 -7 2 -19
0 -25z m-60 -68 c-3 -10 0 -21 7 -24 8 -3 8 -5 -1 -5 -16 -1 -26 17 -19 34 8
22 19 18 13 -5z m79 -16 c9 3 12 1 9 -4 -8 -13 -32 -13 -39 -1 -4 5 -3 17 1
28 7 16 8 15 11 -5 2 -16 8 -22 18 -18z m-136 0 c0 -8 -8 -14 -17 -13 -11 0
-13 3 -5 6 6 2 12 9 12 14 0 6 -5 7 -12 3 -7 -4 -8 -3 -4 5 9 14 26 5 26 -15z
m203 20 c-7 -3 -9 -12 -6 -21 4 -11 2 -14 -5 -9 -18 11 -14 36 6 35 9 0 12 -3
5 -5z m67 -8 c0 -19 -17 -29 -25 -16 -3 5 0 10 7 10 9 0 9 3 -2 10 -13 8 -12
10 3 10 9 0 17 -6 17 -14z m37 -8 c-3 -8 -6 -5 -6 6 -1 11 2 17 5 13 3 -3 4
-12 1 -19z m-423 -3 c3 -8 1 -15 -4 -15 -6 0 -10 7 -10 15 0 8 2 15 4 15 2 0
6 -7 10 -15z m-39 -5 c-3 -5 -14 -10 -23 -9 -14 0 -13 2 3 9 27 11 27 11 20 0z
m100 0 c-3 -5 -14 -10 -23 -9 -14 0 -13 2 3 9 27 11 27 11 20 0z"/>
<path d="M1030 2920 c0 -5 5 -10 11 -10 5 0 7 5 4 10 -3 6 -8 10 -11 10 -2 0
-4 -4 -4 -10z"/>
<path d="M1135 2921 c-7 -12 12 -24 25 -16 11 7 4 25 -10 25 -5 0 -11 -4 -15
-9z"/>
<path d="M3548 3408 c3 -215 1 -273 -10 -279 -8 -6 3 -9 30 -9 l42 0 0 261 0
262 82 -6 c79 -5 84 -7 115 -41 27 -29 33 -44 33 -82 0 -37 -5 -51 -29 -75
-25 -25 -37 -29 -83 -29 l-53 0 3 -145 3 -145 40 0 c21 0 39 3 39 8 0 24 -33
189 -41 206 -22 45 22 -18 77 -111 42 -71 60 -93 77 -94 12 0 30 -2 40 -4 9
-2 17 1 17 6 0 5 -4 9 -8 9 -4 0 -25 30 -47 68 -21 37 -51 86 -67 108 l-27 42
39 26 c104 69 108 226 6 276 -35 17 -62 20 -162 20 l-119 0 3 -272z"/>
<path d="M3690 3525 c0 -89 1 -95 20 -95 38 0 70 44 70 95 0 51 -32 95 -70 95
-19 0 -20 -6 -20 -95z"/>
<path d="M3490 2951 c0 -31 4 -38 18 -37 13 1 19 -9 23 -39 l6 -40 2 37 c0 20
-4 40 -9 43 -6 4 -5 12 4 20 21 21 9 55 -20 55 -21 0 -24 -5 -24 -39z m38 7
c-5 -32 -28 -35 -28 -4 0 17 5 26 16 26 10 0 14 -7 12 -22z"/>
<path d="M3620 2972 c-16 -13 -21 -24 -16 -40 10 -29 44 -38 65 -17 15 16 15
17 -7 6 -28 -15 -42 -7 -42 24 0 29 24 39 45 19 8 -9 15 -11 15 -5 0 6 -9 15
-19 21 -15 7 -24 5 -41 -8z"/>
<path d="M3891 2984 c-1 -12 27 -83 29 -74 7 29 7 40 -1 40 -5 0 -14 10 -19
23 -5 12 -9 17 -9 11z"/>
<path d="M3936 2973 c-6 -14 -5 -15 5 -6 7 7 10 15 7 18 -3 3 -9 -2 -12 -12z"/>
<path d="M3783 2948 c-1 -29 -1 -30 6 -8 l7 25 18 -27 c22 -34 36 -36 36 -5 0
15 -3 18 -9 9 -6 -10 -12 -7 -25 12 -22 35 -31 33 -33 -6z"/>
<path d="M3733 2935 c0 -22 2 -30 4 -17 2 12 2 30 0 40 -3 9 -5 -1 -4 -23z"/>
<path d="M3901 2864 c0 -11 3 -14 6 -6 3 7 2 16 -1 19 -3 4 -6 -2 -5 -13z"/>
<path d="M3491 2854 c0 -11 3 -14 6 -6 3 7 2 16 -1 19 -3 4 -6 -2 -5 -13z"/>
<path d="M3596 2857 c3 -10 9 -15 12 -12 3 3 0 11 -7 18 -10 9 -11 8 -5 -6z"/>
<path d="M3667 2863 c-4 -3 -7 -11 -7 -17 0 -6 5 -5 12 2 6 6 9 14 7 17 -3 3
-9 2 -12 -2z"/>
<path d="M3810 2861 c0 -6 4 -13 10 -16 6 -3 7 1 4 9 -7 18 -14 21 -14 7z"/>
<path d="M3931 2854 c0 -11 3 -14 6 -6 3 7 2 16 -1 19 -3 4 -6 -2 -5 -13z"/>
<path d="M2718 2064 c-5 -4 -8 -470 -8 -1036 l0 -1028 584 0 c379 0 587 4 591
10 8 13 45 13 45 0 0 -7 185 -10 535 -10 l535 0 0 1030 0 1030 -1079 0 c-593
0 -1105 3 -1137 6 -32 3 -62 3 -66 -2z m1307 -1310 c53 -26 75 -60 82 -125 4
-44 1 -66 -15 -103 -24 -53 -59 -73 -144 -83 -33 -4 -47 -10 -44 -18 2 -7 40
-66 83 -131 43 -66 82 -125 86 -132 6 -9 -3 -12 -35 -12 l-43 0 -67 119 c-49
86 -68 129 -68 155 0 20 5 36 10 36 6 0 19 15 30 33 22 36 28 144 9 179 -14
26 -7 31 24 17 37 -17 50 -58 45 -139 l-5 -69 28 14 c19 10 32 28 38 53 22 77
9 138 -36 167 -28 19 -110 30 -147 21 l-26 -6 0 -290 0 -290 -40 0 -40 0 0
308 c0 170 3 312 8 316 4 5 57 6 117 4 83 -3 120 -9 150 -24z"/>
<path d="M1010 479 l0 -290 23 3 22 3 -4 268 -3 267 81 0 c45 0 91 -5 102 -10
48 -26 67 -135 35 -198 -11 -21 -27 -34 -52 -41 -56 -16 -71 -3 -29 26 34 23
35 25 35 89 0 83 -11 104 -53 104 l-32 0 0 -258 0 -257 39 -3 39 -3 -6 48 c-4
26 -9 77 -12 113 l-6 65 25 -45 c14 -25 35 -71 47 -102 20 -55 23 -58 56 -58
l34 0 -24 42 c-14 24 -43 75 -66 115 -22 39 -41 75 -41 80 0 4 17 17 37 28 56
31 77 66 81 138 6 122 -54 166 -225 167 l-103 0 0 -291z"/>
<path d="M983 83 c-7 -2 -13 -21 -13 -40 0 -28 3 -34 16 -29 9 3 21 6 28 6 7
0 12 10 10 23 -1 12 -3 28 -3 35 -1 12 -16 14 -38 5z m27 -28 c0 -8 -4 -15
-10 -15 -5 0 -10 7 -10 15 0 8 5 15 10 15 6 0 10 -7 10 -15z"/>
<path d="M1113 82 c-12 -7 -33 -54 -33 -73 0 -5 5 -9 10 -9 6 0 10 7 10 16 0
8 5 24 11 35 8 16 13 18 25 8 8 -6 14 -20 14 -30 0 -11 5 -19 10 -19 19 0 11
59 -9 70 -23 12 -23 12 -38 2z"/>
<path d="M1376 65 c4 -16 10 -37 15 -45 7 -13 8 -13 9 2 0 9 3 25 7 35 3 10 3
15 -2 11 -4 -4 -14 0 -22 10 -12 15 -13 14 -7 -13z"/>
<path d="M1238 53 c-5 -36 5 -64 15 -40 3 9 2 28 -2 44 l-8 28 -5 -32z"/>
<path d="M1290 64 c0 -11 6 -29 14 -39 12 -17 14 -16 18 13 2 18 0 28 -5 25
-5 -3 -13 1 -18 8 -7 11 -9 9 -9 -7z"/>
</g>
</svg>
